<?xml version="1.0" standalone="no"?>
<!DOCTYPE svg PUBLIC "-//W3C//DTD SVG 20010904//EN"
 "http://www.w3.org/TR/2001/REC-SVG-20010904/DTD/svg10.dtd">
<svg version="1.0" xmlns="http://www.w3.org/2000/svg"
 width="198.000000pt" height="198.000000pt" viewBox="0 0 198.000000 198.000000"
 preserveAspectRatio="xMidYMid meet">
<metadata>
Created by potrace 1.11, written by Peter Selinger 2001-2013
</metadata>
<g transform="translate(0.000000,198.000000) scale(0.100000,-0.100000)"
fill="#000000" stroke="none">
<path d="M797 1954 c-200 -44 -353 -128 -498 -273 -149 -150 -233 -305 -275
-512 -24 -120 -15 -322 20 -440 35 -118 67 -188 130 -283 130 -194 321 -334
551 -401 122 -36 322 -46 444 -21 207 42 362 126 512 275 149 150 233 305 275
512 25 122 15 323 -20 444 -69 230 -208 422 -402 551 -95 63 -164 95 -283 131
-72 21 -110 26 -236 29 -109 3 -169 -1 -218 -12z m654 -598 c69 -29 125 -104
144 -193 l7 -33 -55 0 c-54 0 -55 1 -61 33 -9 50 -43 97 -81 113 -83 34 -181
3 -223 -73 -45 -82 -49 -287 -8 -375 9 -19 31 -48 47 -64 28 -27 36 -29 109
-29 74 0 81 2 110 30 18 17 36 49 43 73 l11 42 53 0 53 0 -7 -32 c-10 -54 -51
-125 -87 -153 -69 -53 -191 -70 -277 -40 -135 48 -199 183 -187 396 7 120 33
190 92 248 59 58 129 83 216 77 36 -3 81 -12 101 -20z m-609 -326 c70 -184
131 -345 134 -358 6 -22 4 -23 -46 -20 l-53 3 -32 85 -32 85 -148 0 -148 0
-30 -87 -30 -88 -54 0 c-29 0 -53 2 -53 4 0 4 230 609 265 699 6 14 17 17 53
15 l45 -3 129 -335z"/>
<path d="M611 1079 c-30 -82 -52 -152 -49 -155 3 -2 53 -3 111 -2 l105 3 -54
149 c-30 83 -56 151 -57 152 -1 2 -27 -64 -56 -147z"/>
</g>
</svg>
