<?xml version="1.0" standalone="no"?>
<!DOCTYPE svg PUBLIC "-//W3C//DTD SVG 20010904//EN"
 "http://www.w3.org/TR/2001/REC-SVG-20010904/DTD/svg10.dtd">
<svg version="1.0" xmlns="http://www.w3.org/2000/svg"
 width="936.000000pt" height="936.000000pt" viewBox="0 0 936.000000 936.000000"
 preserveAspectRatio="xMidYMid meet">
<metadata>
Created by potrace 1.11, written by Peter Selinger 2001-2013
</metadata>
<g transform="translate(0.000000,936.000000) scale(0.100000,-0.100000)"
fill="#000000" stroke="none">
<path d="M4245 9354 c-16 -2 -88 -11 -160 -20 -769 -92 -1582 -420 -2209 -891
-355 -267 -692 -604 -959 -959 -414 -551 -712 -1229 -846 -1924 -61 -319 -66
-382 -66 -880 0 -384 3 -476 18 -590 97 -721 343 -1386 734 -1984 179 -274
358 -493 607 -742 249 -249 468 -428 742 -607 598 -391 1263 -637 1984 -734
198 -27 982 -27 1180 0 911 123 1720 477 2430 1065 148 123 449 424 572 572
526 636 864 1348 1017 2140 61 319 66 382 66 880 0 384 -3 476 -18 590 -123
911 -477 1720 -1065 2430 -123 148 -424 449 -572 572 -637 527 -1352 867
-2145 1018 -316 60 -354 63 -835 65 -245 2 -458 1 -475 -1z m1292 -3122 c133
-361 497 -1348 808 -2192 312 -844 570 -1543 572 -1553 5 -16 -25 -17 -568
-15 l-573 3 -136 402 -135 403 -836 0 -837 0 -69 -202 c-39 -112 -101 -294
-139 -405 l-69 -203 -567 0 -567 0 13 38 c36 99 1589 4306 1611 4365 7 16 46
17 629 17 l621 0 242 -658z"/>
<path d="M4389 4919 c-151 -441 -275 -806 -277 -810 -2 -5 244 -9 552 -9 306
0 556 3 556 8 0 17 -544 1612 -550 1612 -4 0 -130 -361 -281 -801z"/>
</g>
</svg>
